#!OML:ASF H:\Terrain\Patient Classification 1\Terrain2\Thursday\justin.ASF
:FULLY-SPECIFIED
:DEGREES
2471
root 21.6026 16.9411 -20.6271 177.876 55.732 -183.612
lowerback 10.4786 0.109121 -2.68939
upperback 2.42691 0.00299848 0.766746
thorax -3.34207 0.0731265 2.30911
lowerneck -10.9496 -9.03752 -16.9952
upperneck 36.0351 -10.1081 8.83947
head 16.1912 -4.83246 5.21695
rclavicle 2.97183e-014 7.55382e-015
rhumerus -49.0856 -0.612698 -73.9528
rradius 30.6829
rwrist -10.0825
rhand -19.2341 12.7619
rfingers 7.12502
rthumb 7.07917 -17.0997
lclavicle 2.97183e-014 7.55382e-015
lhumerus -49.8821 12.2616 65.7627
lradius 40.7464
lwrist 7.55164
lhand -22.3617 19.9436
lfingers 7.12502
lthumb 4.05949 49.8846
rfemur -36.9414 -21.6052 12.0049
rtibia 39.565
rfoot 8.89305 -5.80093
rtoes -6.29012
lfemur 16.1961 -14.516 -2.4906
ltibia 30.6269
lfoot 23.6347 -13.7883
ltoes 2.83777
2472
root 21.7681 16.925 -20.6103 178.193 56.9792 -183.252
lowerback 10.7674 0.330389 -2.20848
upperback 2.52006 0.359053 0.99849
thorax -3.42504 0.249785 2.23148
lowerneck -11.0527 -9.15261 -17.5772
upperneck 36.248 -10.2183 9.16698
head 16.431 -4.91791 5.45685
rclavicle -8.17999e-014 7.95139e-016
rhumerus -48.1869 -0.0684057 -74.0169
rradius 30.0147
rwrist -9.12895
rhand -20.051 12.5521
rfingers 7.12502
rthumb 6.29056 -17.3345
lclavicle -8.17999e-014 7.95139e-016
lhumerus -50.1025 12.9562 66.0501
lradius 40.9681
lwrist 7.17814
lhand -22.3416 20.0427
lfingers 7.12502
lthumb 4.07895 49.9834
rfemur -37.1421 -21.2356 12.9297
rtibia 40.2721
rfoot 6.80077 -4.84955
rtoes -5.3467
lfemur 16.0187 -14.236 -2.56924
ltibia 32.6376
lfoot 22.7165 -14.4964
ltoes 4.41447
2473
root 21.9304 16.9089 -20.5899 178.296 57.9657 -183.282
lowerback 10.9529 0.505891 -2.0452
upperback 2.58056 0.617676 1.15598
thorax -3.47876 0.379149 2.26744
lowerneck -10.9243 -9.11829 -17.2922
upperneck 36.0002 -10.1385 8.77903
head 16.1981 -4.89948 5.2297
rclavicle 1.32192e-014 -4.37326e-015
rhumerus -47.1478 -0.12552 -73.7313
rradius 29.3115
rwrist -8.09048
rhand -20.0488 12.1775
rfingers 7.12502
rthumb 6.29273 -17.709
lclavicle 1.32192e-014 -4.37326e-015
lhumerus -50.3284 13.6115 66.3229
lradius 41.1477
lwrist 6.88389
lhand -22.548 19.9507
lfingers 7.12502
lthumb 3.87956 49.8951
rfemur -37.3272 -21.2016 13.6685
rtibia 41.0699
rfoot 4.59453 -3.80133
rtoes -4.49339
lfemur 15.609 -14.0825 -2.87992
ltibia 34.5209
lfoot 21.6122 -15.7147
ltoes 6.55944
2474
root 22.0997 16.8834 -20.5679 178.812 58.7385 -183.047
lowerback 10.8126 0.596519 -1.79262
upperback 2.63204 0.775599 1.30719
thorax -3.35574 0.454653 2.26152
lowerneck -10.6766 -8.99132 -16.8171
upperneck 35.5555 -10.0053 8.41289
head 15.8131 -4.83395 4.98716
rclavicle 2.48481e-014 3.97569e-015
rhumerus -45.9774 -0.964232 -72.9435
rradius 28.4809
rwrist -7.01226
rhand -19.1415 12.4642
rfingers 7.12502
rthumb 7.1686 -17.3944
lclavicle 2.48481e-014 3.97569e-015
lhumerus -50.3953 14.1209 66.5597
lradius 41.2272
lwrist 6.93215
lhand -23.0054 19.8481
lfingers 7.12502
lthumb 3.43785 49.8001
rfemur -37.7134 -21.1948 14.6285
rtibia 41.8028
rfoot 2.65412 -3.32276
rtoes -5.25871
lfemur 14.9382 -14.1231 -2.9303
ltibia 36.3325
lfoot 20.9969 -16.251
ltoes 9.05814
2475
root 22.2665 16.8501 -20.5513 179.633 59.4484 -182.458
lowerback 10.5889 0.532372 -1.32531
upperback 2.67048 0.751714 1.48291
thorax -3.18847 0.438691 2.18523
lowerneck -10.6419 -8.85994 -16.6917
upperneck 35.512 -9.80408 8.27787
head 15.7249 -4.75254 4.94146
rclavicle -3.19049e-014 2.14687e-014
rhumerus -44.883 -1.44565 -72.3385
rradius 27.9729
rwrist -6.01865
rhand -18.6812 12.4173
rfingers 7.12502
rthumb 7.61284 -17.4257
lclavicle -3.19049e-014 2.14687e-014
lhumerus -50.6317 14.7321 66.6828
lradius 41.3515
lwrist 7.32052
lhand -23.4728 19.7352
lfingers 7.12502
lthumb 2.98648 49.6941
rfemur -37.9611 -21.1772 15.7031
rtibia 42.36
rfoot 0.643525 -3.26919
rtoes -5.35753
lfemur 14.2959 -14.3462 -2.85391
ltibia 38.1076
lfoot 21.0604 -15.9929
ltoes 12.9979
2476
root 22.425 16.8244 -20.5346 179.498 60.1477 -182.723
lowerback 10.6018 0.406901 -1.35993
upperback 2.73754 0.58758 1.56244
thorax -3.11892 0.357714 2.30935
lowerneck -10.6442 -8.75119 -16.8936
upperneck 35.6109 -9.61182 8.33928
head 15.7625 -4.69475 5.04453
rclavicle 3.8763e-014 -3.97569e-015
rhumerus -43.932 -1.72258 -71.8655
rradius 27.9444
rwrist -5.1118
rhand -18.7639 11.771
rfingers 7.12502
rthumb 7.533 -18.0748
lclavicle 3.8763e-014 -3.97569e-015
lhumerus -51.0287 15.5108 66.764
lradius 41.372
lwrist 7.57401
lhand -23.6554 19.3621
lfingers 7.12502
lthumb 2.81013 49.3234
rfemur -37.8106 -21.0955 16.0374
rtibia 42.7226
rfoot -1.50051 -3.21125
rtoes -2.26032
lfemur 13.8463 -14.5091 -3.42108
ltibia 39.8494
lfoot 20.631 -16.3524
ltoes 15.014
2477
root 22.5842 16.81 -20.5109 178.671 60.776 -183.748
lowerback 10.6194 0.366887 -1.92892
upperback 2.87006 0.479487 1.60307
thorax -2.98875 0.306061 2.68775
lowerneck -10.6171 -8.63315 -16.8507
upperneck 35.4543 -9.43756 8.24876
head 15.6348 -4.63312 5.01992
rclavicle 4.65156e-014 3.18055e-015
rhumerus -42.9769 -2.582 -71.1012
rradius 28.1661
rwrist -4.22179
rhand -18.5681 11.7238
rfingers 7.12502
rthumb 7.72204 -18.1152
lclavicle 4.65156e-014 3.18055e-015
lhumerus -51.0693 16.2167 67.0863
lradius 41.0463
lwrist 7.60996
lhand -24.3298 18.6742
lfingers 7.12502
lthumb 2.15888 48.643
rfemur -37.6618 -21.0227 15.8741
rtibia 43.0267
rfoot -3.0354 -2.88481
rtoes 2.79259
lfemur 13.3147 -14.6365 -4.40969
ltibia 41.5768
lfoot 19.5317 -16.9882
ltoes 14.533
2478
root 22.7379 16.8048 -20.4834 179.002 61.308 -183.566
lowerback 10.6363 0.331722 -1.86562
upperback 2.96148 0.449804 1.73781
thorax -2.90168 0.291451 2.79628
lowerneck -10.6898 -8.54321 -16.4062
upperneck 35.3611 -9.30401 7.91111
head 15.5211 -4.56192 4.81058
rclavicle 7.33515e-014 -2.70347e-014
rhumerus -42.2429 -3.73948 -70.4448
rradius 28.7766
rwrist -3.7154
rhand -18.4077 11.8483
rfingers 7.12502
rthumb 7.87681 -17.985
lclavicle 7.33515e-014 -2.70347e-014
lhumerus -50.7654 16.5421 67.5521
lradius 40.5175
lwrist 7.84418
lhand -25.114 18.43
lfingers 7.12502
lthumb 1.40146 48.4051
rfemur -37.7281 -20.8874 16.4311
rtibia 43.4002
rfoot -3.94764 -2.74436
rtoes 6.2657
lfemur 12.5055 -14.8289 -4.65719
ltibia 43.3664
lfoot 18.0578 -17.6865
ltoes 12.3561
2479
root 22.878 16.8122 -20.4602 180.088 61.7026 -182.418
lowerback 10.9147 0.181479 -1.20266
upperback 2.94659 0.335708 1.96229
thorax -3.06214 0.237365 2.67028
lowerneck -10.7146 -8.4616 -16.121
upperneck 35.5242 -9.14288 7.62333
head 15.5389 -4.49051 4.67175
rclavicle -1.05356e-014 3.65764e-014
rhumerus -41.7218 -4.886 -69.9357
rradius 29.5073
rwrist -3.15031
rhand -19.2634 11.7102
rfingers 7.12502
rthumb 7.05086 -18.1524
lclavicle -1.05356e-014 3.65764e-014
lhumerus -50.5673 16.7978 68.0139
lradius 39.9326
lwrist 8.27382
lhand -24.7281 19.508
lfingers 7.12502
lthumb 1.77417 49.4803
rfemur -37.707 -20.6534 17.3922
rtibia 43.8433
rfoot -4.6349 -2.82046
rtoes 6.81442
lfemur 11.63 -15.2163 -4.48107
ltibia 45.2701
lfoot 16.6239 -18.3112
ltoes 10.4825
